<svg width="66" height="66" viewBox="0 0 66 66" fill="none" xmlns="http://www.w3.org/2000/svg">
<path fill-rule="evenodd" clip-rule="evenodd" d="M21.0925 5.49756H44.935C54.2575 5.49756 60.5 12.0426 60.5 21.7776V44.2478C60.5 53.9553 54.2575 60.4976 44.935 60.4976H21.0925C11.77 60.4976 5.5 53.9553 5.5 44.2478V21.7776C5.5 12.0426 11.77 5.49756 21.0925 5.49756ZM41.2775 41.2476C42.2125 40.3153 42.2125 38.8028 41.2775 37.8678L36.3825 32.9728L41.2775 28.0751C42.2125 27.1428 42.2125 25.6028 41.2775 24.6678C40.3425 23.7301 38.83 23.7301 37.8675 24.6678L33 29.5601L28.105 24.6678C27.1425 23.7301 25.63 23.7301 24.695 24.6678C23.76 25.6028 23.76 27.1428 24.695 28.0751L29.59 32.9728L24.695 37.8403C23.76 38.8028 23.76 40.3153 24.695 41.2476C25.1625 41.7151 25.795 41.9653 26.4 41.9653C27.0325 41.9653 27.6375 41.7151 28.105 41.2476L33 36.3828L37.895 41.2476C38.3625 41.7453 38.9675 41.9653 39.5725 41.9653C40.205 41.9653 40.81 41.7151 41.2775 41.2476Z" fill="#FD4A4A"/>
</svg>
