<svg width="66" height="66" viewBox="0 0 66 66" fill="none" xmlns="http://www.w3.org/2000/svg">
<path fill-rule="evenodd" clip-rule="evenodd" d="M21.0925 5.49951H44.935C54.2575 5.49951 60.5 12.0445 60.5 21.7795V44.2498C60.5 53.9545 54.2575 60.4995 44.935 60.4995H21.0925C11.77 60.4995 5.5 53.9545 5.5 44.2498V21.7795C5.5 12.0445 11.77 5.49951 21.0925 5.49951ZM31.4325 41.222L44.495 28.1595C45.43 27.2245 45.43 25.712 44.495 24.7495C43.56 23.8145 42.02 23.8145 41.085 24.7495L29.7275 36.107L24.915 31.2945C23.98 30.3595 22.44 30.3595 21.505 31.2945C20.57 32.2295 20.57 33.742 21.505 34.7045L28.05 41.222C28.5175 41.6895 29.1225 41.9095 29.7275 41.9095C30.36 41.9095 30.965 41.6895 31.4325 41.222Z" fill="#4CAF50"/>
</svg>
