<svg width="19" height="19" viewBox="0 0 19 19" fill="none" xmlns="http://www.w3.org/2000/svg">
<path fill-rule="evenodd" clip-rule="evenodd" d="M14.0677 6.63559H17.4173C17.4173 3.94614 15.8058 2.375 13.0755 2.375H5.92584C3.19547 2.375 1.58398 3.94614 1.58398 6.60129V12.3987C1.58398 15.0539 3.19547 16.625 5.92584 16.625H13.0755C15.8058 16.625 17.4173 15.0539 17.4173 12.3987V12.1517H14.0677C12.5131 12.1517 11.2529 10.923 11.2529 9.40738C11.2529 7.89172 12.5131 6.66304 14.0677 6.66304V6.63559ZM14.0677 7.81566H16.8262C17.1527 7.81566 17.4173 8.07368 17.4173 8.39197V10.3953C17.4135 10.7121 17.1511 10.9679 16.8262 10.9717H14.131C13.344 10.982 12.6558 10.4566 12.4773 9.70926C12.3879 9.24531 12.5134 8.76657 12.8202 8.40134C13.1269 8.0361 13.5835 7.82173 14.0677 7.81566ZM14.1873 9.92194H14.4477C14.7819 9.92194 15.0529 9.65778 15.0529 9.33191C15.0529 9.00604 14.7819 8.74188 14.4477 8.74188H14.1873C14.0275 8.74004 13.8735 8.80067 13.7598 8.91024C13.6461 9.0198 13.5821 9.16919 13.5821 9.32505C13.5821 9.65204 13.8519 9.91818 14.1873 9.92194ZM5.33473 6.63559H9.80324C10.1375 6.63559 10.4084 6.37142 10.4084 6.04556C10.4084 5.71969 10.1375 5.45552 9.80324 5.45552H5.33473C5.00322 5.4555 4.73339 5.71551 4.72954 6.0387C4.72952 6.36569 4.99936 6.63183 5.33473 6.63559Z" fill="#87329E"/>
</svg>
